<mxfile host="app.diagrams.net" agent="Mozilla/5.0 (Windows NT 10.0; Win64; x64) AppleWebKit/537.36 (KHTML, like Gecko) Chrome/135.0.0.0 Safari/537.36 Edg/135.0.0.0" version="26.2.9">
  <diagram name="Page-1" id="HVJSyszQEbhTADYhITam">
    <mxGraphModel dx="1971" dy="1084" grid="1" gridSize="10" guides="1" tooltips="1" connect="1" arrows="1" fold="1" page="1" pageScale="1" pageWidth="850" pageHeight="1100" math="0" shadow="0">
      <root>
        <mxCell id="0" />
        <mxCell id="1" parent="0" />
        <mxCell id="x8Xve1GxDHv1DlTKFavy-1" value="Reservation: Class" style="swimlane;fontStyle=0;childLayout=stackLayout;horizontal=1;startSize=26;horizontalStack=0;resizeParent=1;resizeParentMax=0;resizeLast=0;collapsible=1;marginBottom=0;whiteSpace=wrap;html=1;" vertex="1" parent="1">
          <mxGeometry x="760" y="272" width="260" height="182" as="geometry" />
        </mxCell>
        <mxCell id="x8Xve1GxDHv1DlTKFavy-36" value="reservationID: String" style="text;strokeColor=none;fillColor=none;align=left;verticalAlign=top;spacingLeft=4;spacingRight=4;overflow=hidden;rotatable=0;points=[[0,0.5],[1,0.5]];portConstraint=eastwest;whiteSpace=wrap;html=1;" vertex="1" parent="x8Xve1GxDHv1DlTKFavy-1">
          <mxGeometry y="26" width="260" height="26" as="geometry" />
        </mxCell>
        <mxCell id="x8Xve1GxDHv1DlTKFavy-2" value="userID: String" style="text;strokeColor=none;fillColor=none;align=left;verticalAlign=top;spacingLeft=4;spacingRight=4;overflow=hidden;rotatable=0;points=[[0,0.5],[1,0.5]];portConstraint=eastwest;whiteSpace=wrap;html=1;" vertex="1" parent="x8Xve1GxDHv1DlTKFavy-1">
          <mxGeometry y="52" width="260" height="26" as="geometry" />
        </mxCell>
        <mxCell id="x8Xve1GxDHv1DlTKFavy-3" value="routeID: String" style="text;strokeColor=none;fillColor=none;align=left;verticalAlign=top;spacingLeft=4;spacingRight=4;overflow=hidden;rotatable=0;points=[[0,0.5],[1,0.5]];portConstraint=eastwest;whiteSpace=wrap;html=1;" vertex="1" parent="x8Xve1GxDHv1DlTKFavy-1">
          <mxGeometry y="78" width="260" height="26" as="geometry" />
        </mxCell>
        <mxCell id="x8Xve1GxDHv1DlTKFavy-10" value="transportType: TransportType" style="text;strokeColor=none;fillColor=none;align=left;verticalAlign=top;spacingLeft=4;spacingRight=4;overflow=hidden;rotatable=0;points=[[0,0.5],[1,0.5]];portConstraint=eastwest;whiteSpace=wrap;html=1;" vertex="1" parent="x8Xve1GxDHv1DlTKFavy-1">
          <mxGeometry y="104" width="260" height="26" as="geometry" />
        </mxCell>
        <mxCell id="x8Xve1GxDHv1DlTKFavy-4" value="reservationType: ReservationType" style="text;strokeColor=none;fillColor=none;align=left;verticalAlign=top;spacingLeft=4;spacingRight=4;overflow=hidden;rotatable=0;points=[[0,0.5],[1,0.5]];portConstraint=eastwest;whiteSpace=wrap;html=1;" vertex="1" parent="x8Xve1GxDHv1DlTKFavy-1">
          <mxGeometry y="130" width="260" height="26" as="geometry" />
        </mxCell>
        <mxCell id="x8Xve1GxDHv1DlTKFavy-8" value="reservationStatus: ReservationStatus" style="text;strokeColor=none;fillColor=none;align=left;verticalAlign=top;spacingLeft=4;spacingRight=4;overflow=hidden;rotatable=0;points=[[0,0.5],[1,0.5]];portConstraint=eastwest;whiteSpace=wrap;html=1;" vertex="1" parent="x8Xve1GxDHv1DlTKFavy-1">
          <mxGeometry y="156" width="260" height="26" as="geometry" />
        </mxCell>
        <mxCell id="x8Xve1GxDHv1DlTKFavy-97" style="edgeStyle=orthogonalEdgeStyle;rounded=0;orthogonalLoop=1;jettySize=auto;html=1;" edge="1" parent="1" source="x8Xve1GxDHv1DlTKFavy-11" target="x8Xve1GxDHv1DlTKFavy-10">
          <mxGeometry relative="1" as="geometry" />
        </mxCell>
        <mxCell id="x8Xve1GxDHv1DlTKFavy-11" value="TransportType: Enum" style="swimlane;fontStyle=1;align=center;verticalAlign=top;childLayout=stackLayout;horizontal=1;startSize=26;horizontalStack=0;resizeParent=1;resizeParentMax=0;resizeLast=0;collapsible=1;marginBottom=0;whiteSpace=wrap;html=1;" vertex="1" parent="1">
          <mxGeometry x="500" y="333" width="160" height="112" as="geometry" />
        </mxCell>
        <mxCell id="x8Xve1GxDHv1DlTKFavy-12" value="AIRPLANE" style="text;strokeColor=none;fillColor=none;align=left;verticalAlign=top;spacingLeft=4;spacingRight=4;overflow=hidden;rotatable=0;points=[[0,0.5],[1,0.5]];portConstraint=eastwest;whiteSpace=wrap;html=1;" vertex="1" parent="x8Xve1GxDHv1DlTKFavy-11">
          <mxGeometry y="26" width="160" height="26" as="geometry" />
        </mxCell>
        <mxCell id="x8Xve1GxDHv1DlTKFavy-15" value="TRAIN" style="text;strokeColor=none;fillColor=none;align=left;verticalAlign=top;spacingLeft=4;spacingRight=4;overflow=hidden;rotatable=0;points=[[0,0.5],[1,0.5]];portConstraint=eastwest;whiteSpace=wrap;html=1;" vertex="1" parent="x8Xve1GxDHv1DlTKFavy-11">
          <mxGeometry y="52" width="160" height="26" as="geometry" />
        </mxCell>
        <mxCell id="x8Xve1GxDHv1DlTKFavy-16" value="BUS" style="text;strokeColor=none;fillColor=none;align=left;verticalAlign=top;spacingLeft=4;spacingRight=4;overflow=hidden;rotatable=0;points=[[0,0.5],[1,0.5]];portConstraint=eastwest;whiteSpace=wrap;html=1;" vertex="1" parent="x8Xve1GxDHv1DlTKFavy-11">
          <mxGeometry y="78" width="160" height="26" as="geometry" />
        </mxCell>
        <mxCell id="x8Xve1GxDHv1DlTKFavy-13" value="" style="line;strokeWidth=1;fillColor=none;align=left;verticalAlign=middle;spacingTop=-1;spacingLeft=3;spacingRight=3;rotatable=0;labelPosition=right;points=[];portConstraint=eastwest;strokeColor=inherit;" vertex="1" parent="x8Xve1GxDHv1DlTKFavy-11">
          <mxGeometry y="104" width="160" height="8" as="geometry" />
        </mxCell>
        <mxCell id="x8Xve1GxDHv1DlTKFavy-17" value="ReservationType: Enum" style="swimlane;fontStyle=1;align=center;verticalAlign=top;childLayout=stackLayout;horizontal=1;startSize=26;horizontalStack=0;resizeParent=1;resizeParentMax=0;resizeLast=0;collapsible=1;marginBottom=0;whiteSpace=wrap;html=1;" vertex="1" parent="1">
          <mxGeometry x="1660" y="591" width="160" height="112" as="geometry" />
        </mxCell>
        <mxCell id="x8Xve1GxDHv1DlTKFavy-18" value="ROUTE" style="text;strokeColor=none;fillColor=none;align=left;verticalAlign=top;spacingLeft=4;spacingRight=4;overflow=hidden;rotatable=0;points=[[0,0.5],[1,0.5]];portConstraint=eastwest;whiteSpace=wrap;html=1;" vertex="1" parent="x8Xve1GxDHv1DlTKFavy-17">
          <mxGeometry y="26" width="160" height="26" as="geometry" />
        </mxCell>
        <mxCell id="x8Xve1GxDHv1DlTKFavy-19" value="Daily" style="text;strokeColor=none;fillColor=none;align=left;verticalAlign=top;spacingLeft=4;spacingRight=4;overflow=hidden;rotatable=0;points=[[0,0.5],[1,0.5]];portConstraint=eastwest;whiteSpace=wrap;html=1;" vertex="1" parent="x8Xve1GxDHv1DlTKFavy-17">
          <mxGeometry y="52" width="160" height="26" as="geometry" />
        </mxCell>
        <mxCell id="x8Xve1GxDHv1DlTKFavy-20" value="Monthly" style="text;strokeColor=none;fillColor=none;align=left;verticalAlign=top;spacingLeft=4;spacingRight=4;overflow=hidden;rotatable=0;points=[[0,0.5],[1,0.5]];portConstraint=eastwest;whiteSpace=wrap;html=1;" vertex="1" parent="x8Xve1GxDHv1DlTKFavy-17">
          <mxGeometry y="78" width="160" height="26" as="geometry" />
        </mxCell>
        <mxCell id="x8Xve1GxDHv1DlTKFavy-21" value="" style="line;strokeWidth=1;fillColor=none;align=left;verticalAlign=middle;spacingTop=-1;spacingLeft=3;spacingRight=3;rotatable=0;labelPosition=right;points=[];portConstraint=eastwest;strokeColor=inherit;" vertex="1" parent="x8Xve1GxDHv1DlTKFavy-17">
          <mxGeometry y="104" width="160" height="8" as="geometry" />
        </mxCell>
        <mxCell id="x8Xve1GxDHv1DlTKFavy-22" value="Status: Enum" style="swimlane;fontStyle=1;align=center;verticalAlign=top;childLayout=stackLayout;horizontal=1;startSize=26;horizontalStack=0;resizeParent=1;resizeParentMax=0;resizeLast=0;collapsible=1;marginBottom=0;whiteSpace=wrap;html=1;" vertex="1" parent="1">
          <mxGeometry x="990" y="910" width="160" height="86" as="geometry" />
        </mxCell>
        <mxCell id="x8Xve1GxDHv1DlTKFavy-23" value="ACTIVE" style="text;strokeColor=none;fillColor=none;align=left;verticalAlign=top;spacingLeft=4;spacingRight=4;overflow=hidden;rotatable=0;points=[[0,0.5],[1,0.5]];portConstraint=eastwest;whiteSpace=wrap;html=1;" vertex="1" parent="x8Xve1GxDHv1DlTKFavy-22">
          <mxGeometry y="26" width="160" height="26" as="geometry" />
        </mxCell>
        <mxCell id="x8Xve1GxDHv1DlTKFavy-24" value="INACTIVE" style="text;strokeColor=none;fillColor=none;align=left;verticalAlign=top;spacingLeft=4;spacingRight=4;overflow=hidden;rotatable=0;points=[[0,0.5],[1,0.5]];portConstraint=eastwest;whiteSpace=wrap;html=1;" vertex="1" parent="x8Xve1GxDHv1DlTKFavy-22">
          <mxGeometry y="52" width="160" height="26" as="geometry" />
        </mxCell>
        <mxCell id="x8Xve1GxDHv1DlTKFavy-26" value="" style="line;strokeWidth=1;fillColor=none;align=left;verticalAlign=middle;spacingTop=-1;spacingLeft=3;spacingRight=3;rotatable=0;labelPosition=right;points=[];portConstraint=eastwest;strokeColor=inherit;" vertex="1" parent="x8Xve1GxDHv1DlTKFavy-22">
          <mxGeometry y="78" width="160" height="8" as="geometry" />
        </mxCell>
        <mxCell id="x8Xve1GxDHv1DlTKFavy-32" value="Route: Class" style="swimlane;fontStyle=0;childLayout=stackLayout;horizontal=1;startSize=26;fillColor=none;horizontalStack=0;resizeParent=1;resizeParentMax=0;resizeLast=0;collapsible=1;marginBottom=0;whiteSpace=wrap;html=1;" vertex="1" parent="1">
          <mxGeometry x="455" y="542" width="250" height="182" as="geometry" />
        </mxCell>
        <mxCell id="x8Xve1GxDHv1DlTKFavy-33" value="routeID: String" style="text;strokeColor=none;fillColor=none;align=left;verticalAlign=top;spacingLeft=4;spacingRight=4;overflow=hidden;rotatable=0;points=[[0,0.5],[1,0.5]];portConstraint=eastwest;whiteSpace=wrap;html=1;" vertex="1" parent="x8Xve1GxDHv1DlTKFavy-32">
          <mxGeometry y="26" width="250" height="26" as="geometry" />
        </mxCell>
        <mxCell id="x8Xve1GxDHv1DlTKFavy-35" value="transportID: String" style="text;strokeColor=none;fillColor=none;align=left;verticalAlign=top;spacingLeft=4;spacingRight=4;overflow=hidden;rotatable=0;points=[[0,0.5],[1,0.5]];portConstraint=eastwest;whiteSpace=wrap;html=1;" vertex="1" parent="x8Xve1GxDHv1DlTKFavy-32">
          <mxGeometry y="52" width="250" height="26" as="geometry" />
        </mxCell>
        <mxCell id="x8Xve1GxDHv1DlTKFavy-34" value="stops: List&amp;lt;StopPoint&amp;gt;" style="text;strokeColor=none;fillColor=none;align=left;verticalAlign=top;spacingLeft=4;spacingRight=4;overflow=hidden;rotatable=0;points=[[0,0.5],[1,0.5]];portConstraint=eastwest;whiteSpace=wrap;html=1;" vertex="1" parent="x8Xve1GxDHv1DlTKFavy-32">
          <mxGeometry y="78" width="250" height="26" as="geometry" />
        </mxCell>
        <mxCell id="x8Xve1GxDHv1DlTKFavy-37" value="transportType: TransportType" style="text;strokeColor=none;fillColor=none;align=left;verticalAlign=top;spacingLeft=4;spacingRight=4;overflow=hidden;rotatable=0;points=[[0,0.5],[1,0.5]];portConstraint=eastwest;whiteSpace=wrap;html=1;" vertex="1" parent="x8Xve1GxDHv1DlTKFavy-32">
          <mxGeometry y="104" width="250" height="26" as="geometry" />
        </mxCell>
        <mxCell id="x8Xve1GxDHv1DlTKFavy-38" value="availableSeats: int" style="text;strokeColor=none;fillColor=none;align=left;verticalAlign=top;spacingLeft=4;spacingRight=4;overflow=hidden;rotatable=0;points=[[0,0.5],[1,0.5]];portConstraint=eastwest;whiteSpace=wrap;html=1;" vertex="1" parent="x8Xve1GxDHv1DlTKFavy-32">
          <mxGeometry y="130" width="250" height="26" as="geometry" />
        </mxCell>
        <mxCell id="x8Xve1GxDHv1DlTKFavy-39" value="isActive: ReservationStatus" style="text;strokeColor=none;fillColor=none;align=left;verticalAlign=top;spacingLeft=4;spacingRight=4;overflow=hidden;rotatable=0;points=[[0,0.5],[1,0.5]];portConstraint=eastwest;whiteSpace=wrap;html=1;" vertex="1" parent="x8Xve1GxDHv1DlTKFavy-32">
          <mxGeometry y="156" width="250" height="26" as="geometry" />
        </mxCell>
        <mxCell id="x8Xve1GxDHv1DlTKFavy-45" value="StopPoint: Class" style="swimlane;fontStyle=0;childLayout=stackLayout;horizontal=1;startSize=26;fillColor=none;horizontalStack=0;resizeParent=1;resizeParentMax=0;resizeLast=0;collapsible=1;marginBottom=0;whiteSpace=wrap;html=1;" vertex="1" parent="1">
          <mxGeometry x="200" y="724" width="225" height="104" as="geometry" />
        </mxCell>
        <mxCell id="x8Xve1GxDHv1DlTKFavy-46" value="location: String" style="text;strokeColor=none;fillColor=none;align=left;verticalAlign=top;spacingLeft=4;spacingRight=4;overflow=hidden;rotatable=0;points=[[0,0.5],[1,0.5]];portConstraint=eastwest;whiteSpace=wrap;html=1;" vertex="1" parent="x8Xve1GxDHv1DlTKFavy-45">
          <mxGeometry y="26" width="225" height="26" as="geometry" />
        </mxCell>
        <mxCell id="x8Xve1GxDHv1DlTKFavy-47" value="arrivalTime: DateTime" style="text;strokeColor=none;fillColor=none;align=left;verticalAlign=top;spacingLeft=4;spacingRight=4;overflow=hidden;rotatable=0;points=[[0,0.5],[1,0.5]];portConstraint=eastwest;whiteSpace=wrap;html=1;" vertex="1" parent="x8Xve1GxDHv1DlTKFavy-45">
          <mxGeometry y="52" width="225" height="26" as="geometry" />
        </mxCell>
        <mxCell id="x8Xve1GxDHv1DlTKFavy-48" value="departureTime: DateTime" style="text;strokeColor=none;fillColor=none;align=left;verticalAlign=top;spacingLeft=4;spacingRight=4;overflow=hidden;rotatable=0;points=[[0,0.5],[1,0.5]];portConstraint=eastwest;whiteSpace=wrap;html=1;" vertex="1" parent="x8Xve1GxDHv1DlTKFavy-45">
          <mxGeometry y="78" width="225" height="26" as="geometry" />
        </mxCell>
        <mxCell id="x8Xve1GxDHv1DlTKFavy-74" style="edgeStyle=orthogonalEdgeStyle;rounded=0;orthogonalLoop=1;jettySize=auto;html=1;" edge="1" parent="1" source="x8Xve1GxDHv1DlTKFavy-50" target="x8Xve1GxDHv1DlTKFavy-66">
          <mxGeometry relative="1" as="geometry" />
        </mxCell>
        <mxCell id="x8Xve1GxDHv1DlTKFavy-76" style="edgeStyle=orthogonalEdgeStyle;rounded=0;orthogonalLoop=1;jettySize=auto;html=1;" edge="1" parent="1" source="x8Xve1GxDHv1DlTKFavy-50" target="x8Xve1GxDHv1DlTKFavy-54">
          <mxGeometry relative="1" as="geometry" />
        </mxCell>
        <mxCell id="x8Xve1GxDHv1DlTKFavy-77" style="edgeStyle=orthogonalEdgeStyle;rounded=0;orthogonalLoop=1;jettySize=auto;html=1;" edge="1" parent="1" source="x8Xve1GxDHv1DlTKFavy-50" target="x8Xve1GxDHv1DlTKFavy-60">
          <mxGeometry relative="1" as="geometry" />
        </mxCell>
        <mxCell id="x8Xve1GxDHv1DlTKFavy-50" value="&amp;lt;&amp;lt;abstract&amp;gt;&amp;gt; Transport" style="swimlane;fontStyle=0;childLayout=stackLayout;horizontal=1;startSize=26;fillColor=none;horizontalStack=0;resizeParent=1;resizeParentMax=0;resizeLast=0;collapsible=1;marginBottom=0;whiteSpace=wrap;html=1;" vertex="1" parent="1">
          <mxGeometry x="1275" y="582" width="250" height="78" as="geometry" />
        </mxCell>
        <mxCell id="x8Xve1GxDHv1DlTKFavy-51" value="transportID: String" style="text;strokeColor=none;fillColor=none;align=left;verticalAlign=top;spacingLeft=4;spacingRight=4;overflow=hidden;rotatable=0;points=[[0,0.5],[1,0.5]];portConstraint=eastwest;whiteSpace=wrap;html=1;" vertex="1" parent="x8Xve1GxDHv1DlTKFavy-50">
          <mxGeometry y="26" width="250" height="26" as="geometry" />
        </mxCell>
        <mxCell id="x8Xve1GxDHv1DlTKFavy-52" value="transportType: TransportType" style="text;strokeColor=none;fillColor=none;align=left;verticalAlign=top;spacingLeft=4;spacingRight=4;overflow=hidden;rotatable=0;points=[[0,0.5],[1,0.5]];portConstraint=eastwest;whiteSpace=wrap;html=1;" vertex="1" parent="x8Xve1GxDHv1DlTKFavy-50">
          <mxGeometry y="52" width="250" height="26" as="geometry" />
        </mxCell>
        <mxCell id="x8Xve1GxDHv1DlTKFavy-54" value="Airplane: Class" style="swimlane;fontStyle=0;childLayout=stackLayout;horizontal=1;startSize=26;fillColor=none;horizontalStack=0;resizeParent=1;resizeParentMax=0;resizeLast=0;collapsible=1;marginBottom=0;whiteSpace=wrap;html=1;" vertex="1" parent="1">
          <mxGeometry x="1490" y="712" width="140" height="156" as="geometry" />
        </mxCell>
        <mxCell id="x8Xve1GxDHv1DlTKFavy-55" value="id: String" style="text;strokeColor=none;fillColor=none;align=left;verticalAlign=top;spacingLeft=4;spacingRight=4;overflow=hidden;rotatable=0;points=[[0,0.5],[1,0.5]];portConstraint=eastwest;whiteSpace=wrap;html=1;" vertex="1" parent="x8Xve1GxDHv1DlTKFavy-54">
          <mxGeometry y="26" width="140" height="26" as="geometry" />
        </mxCell>
        <mxCell id="x8Xve1GxDHv1DlTKFavy-56" value="model: String" style="text;strokeColor=none;fillColor=none;align=left;verticalAlign=top;spacingLeft=4;spacingRight=4;overflow=hidden;rotatable=0;points=[[0,0.5],[1,0.5]];portConstraint=eastwest;whiteSpace=wrap;html=1;" vertex="1" parent="x8Xve1GxDHv1DlTKFavy-54">
          <mxGeometry y="52" width="140" height="26" as="geometry" />
        </mxCell>
        <mxCell id="x8Xve1GxDHv1DlTKFavy-57" value="seatingCapacity: int" style="text;strokeColor=none;fillColor=none;align=left;verticalAlign=top;spacingLeft=4;spacingRight=4;overflow=hidden;rotatable=0;points=[[0,0.5],[1,0.5]];portConstraint=eastwest;whiteSpace=wrap;html=1;" vertex="1" parent="x8Xve1GxDHv1DlTKFavy-54">
          <mxGeometry y="78" width="140" height="26" as="geometry" />
        </mxCell>
        <mxCell id="x8Xve1GxDHv1DlTKFavy-58" value="airline: String" style="text;strokeColor=none;fillColor=none;align=left;verticalAlign=top;spacingLeft=4;spacingRight=4;overflow=hidden;rotatable=0;points=[[0,0.5],[1,0.5]];portConstraint=eastwest;whiteSpace=wrap;html=1;" vertex="1" parent="x8Xve1GxDHv1DlTKFavy-54">
          <mxGeometry y="104" width="140" height="26" as="geometry" />
        </mxCell>
        <mxCell id="x8Xve1GxDHv1DlTKFavy-59" value="status: StatusType" style="text;strokeColor=none;fillColor=none;align=left;verticalAlign=top;spacingLeft=4;spacingRight=4;overflow=hidden;rotatable=0;points=[[0,0.5],[1,0.5]];portConstraint=eastwest;whiteSpace=wrap;html=1;" vertex="1" parent="x8Xve1GxDHv1DlTKFavy-54">
          <mxGeometry y="130" width="140" height="26" as="geometry" />
        </mxCell>
        <mxCell id="x8Xve1GxDHv1DlTKFavy-60" value="Train: Class" style="swimlane;fontStyle=0;childLayout=stackLayout;horizontal=1;startSize=26;fillColor=none;horizontalStack=0;resizeParent=1;resizeParentMax=0;resizeLast=0;collapsible=1;marginBottom=0;whiteSpace=wrap;html=1;" vertex="1" parent="1">
          <mxGeometry x="1330" y="712" width="140" height="156" as="geometry" />
        </mxCell>
        <mxCell id="x8Xve1GxDHv1DlTKFavy-61" value="id: String" style="text;strokeColor=none;fillColor=none;align=left;verticalAlign=top;spacingLeft=4;spacingRight=4;overflow=hidden;rotatable=0;points=[[0,0.5],[1,0.5]];portConstraint=eastwest;whiteSpace=wrap;html=1;" vertex="1" parent="x8Xve1GxDHv1DlTKFavy-60">
          <mxGeometry y="26" width="140" height="26" as="geometry" />
        </mxCell>
        <mxCell id="x8Xve1GxDHv1DlTKFavy-62" value="model: String" style="text;strokeColor=none;fillColor=none;align=left;verticalAlign=top;spacingLeft=4;spacingRight=4;overflow=hidden;rotatable=0;points=[[0,0.5],[1,0.5]];portConstraint=eastwest;whiteSpace=wrap;html=1;" vertex="1" parent="x8Xve1GxDHv1DlTKFavy-60">
          <mxGeometry y="52" width="140" height="26" as="geometry" />
        </mxCell>
        <mxCell id="x8Xve1GxDHv1DlTKFavy-63" value="seatingCapacity: int" style="text;strokeColor=none;fillColor=none;align=left;verticalAlign=top;spacingLeft=4;spacingRight=4;overflow=hidden;rotatable=0;points=[[0,0.5],[1,0.5]];portConstraint=eastwest;whiteSpace=wrap;html=1;" vertex="1" parent="x8Xve1GxDHv1DlTKFavy-60">
          <mxGeometry y="78" width="140" height="26" as="geometry" />
        </mxCell>
        <mxCell id="x8Xve1GxDHv1DlTKFavy-64" value="company: String" style="text;strokeColor=none;fillColor=none;align=left;verticalAlign=top;spacingLeft=4;spacingRight=4;overflow=hidden;rotatable=0;points=[[0,0.5],[1,0.5]];portConstraint=eastwest;whiteSpace=wrap;html=1;" vertex="1" parent="x8Xve1GxDHv1DlTKFavy-60">
          <mxGeometry y="104" width="140" height="26" as="geometry" />
        </mxCell>
        <mxCell id="x8Xve1GxDHv1DlTKFavy-65" value="status: StatusType" style="text;strokeColor=none;fillColor=none;align=left;verticalAlign=top;spacingLeft=4;spacingRight=4;overflow=hidden;rotatable=0;points=[[0,0.5],[1,0.5]];portConstraint=eastwest;whiteSpace=wrap;html=1;" vertex="1" parent="x8Xve1GxDHv1DlTKFavy-60">
          <mxGeometry y="130" width="140" height="26" as="geometry" />
        </mxCell>
        <mxCell id="x8Xve1GxDHv1DlTKFavy-66" value="Airplane: Class" style="swimlane;fontStyle=0;childLayout=stackLayout;horizontal=1;startSize=26;fillColor=none;horizontalStack=0;resizeParent=1;resizeParentMax=0;resizeLast=0;collapsible=1;marginBottom=0;whiteSpace=wrap;html=1;" vertex="1" parent="1">
          <mxGeometry x="1170" y="712" width="140" height="156" as="geometry" />
        </mxCell>
        <mxCell id="x8Xve1GxDHv1DlTKFavy-67" value="id: String" style="text;strokeColor=none;fillColor=none;align=left;verticalAlign=top;spacingLeft=4;spacingRight=4;overflow=hidden;rotatable=0;points=[[0,0.5],[1,0.5]];portConstraint=eastwest;whiteSpace=wrap;html=1;" vertex="1" parent="x8Xve1GxDHv1DlTKFavy-66">
          <mxGeometry y="26" width="140" height="26" as="geometry" />
        </mxCell>
        <mxCell id="x8Xve1GxDHv1DlTKFavy-68" value="model: String" style="text;strokeColor=none;fillColor=none;align=left;verticalAlign=top;spacingLeft=4;spacingRight=4;overflow=hidden;rotatable=0;points=[[0,0.5],[1,0.5]];portConstraint=eastwest;whiteSpace=wrap;html=1;" vertex="1" parent="x8Xve1GxDHv1DlTKFavy-66">
          <mxGeometry y="52" width="140" height="26" as="geometry" />
        </mxCell>
        <mxCell id="x8Xve1GxDHv1DlTKFavy-69" value="seatingCapacity: int" style="text;strokeColor=none;fillColor=none;align=left;verticalAlign=top;spacingLeft=4;spacingRight=4;overflow=hidden;rotatable=0;points=[[0,0.5],[1,0.5]];portConstraint=eastwest;whiteSpace=wrap;html=1;" vertex="1" parent="x8Xve1GxDHv1DlTKFavy-66">
          <mxGeometry y="78" width="140" height="26" as="geometry" />
        </mxCell>
        <mxCell id="x8Xve1GxDHv1DlTKFavy-70" value="company: String" style="text;strokeColor=none;fillColor=none;align=left;verticalAlign=top;spacingLeft=4;spacingRight=4;overflow=hidden;rotatable=0;points=[[0,0.5],[1,0.5]];portConstraint=eastwest;whiteSpace=wrap;html=1;" vertex="1" parent="x8Xve1GxDHv1DlTKFavy-66">
          <mxGeometry y="104" width="140" height="26" as="geometry" />
        </mxCell>
        <mxCell id="x8Xve1GxDHv1DlTKFavy-71" value="status: StatusType" style="text;strokeColor=none;fillColor=none;align=left;verticalAlign=top;spacingLeft=4;spacingRight=4;overflow=hidden;rotatable=0;points=[[0,0.5],[1,0.5]];portConstraint=eastwest;whiteSpace=wrap;html=1;" vertex="1" parent="x8Xve1GxDHv1DlTKFavy-66">
          <mxGeometry y="130" width="140" height="26" as="geometry" />
        </mxCell>
        <mxCell id="x8Xve1GxDHv1DlTKFavy-78" style="edgeStyle=orthogonalEdgeStyle;rounded=0;orthogonalLoop=1;jettySize=auto;html=1;" edge="1" parent="1" source="x8Xve1GxDHv1DlTKFavy-35" target="x8Xve1GxDHv1DlTKFavy-51">
          <mxGeometry relative="1" as="geometry" />
        </mxCell>
        <mxCell id="x8Xve1GxDHv1DlTKFavy-79" style="edgeStyle=orthogonalEdgeStyle;rounded=0;orthogonalLoop=1;jettySize=auto;html=1;" edge="1" parent="1" source="x8Xve1GxDHv1DlTKFavy-37" target="x8Xve1GxDHv1DlTKFavy-52">
          <mxGeometry relative="1" as="geometry" />
        </mxCell>
        <mxCell id="x8Xve1GxDHv1DlTKFavy-80" style="edgeStyle=orthogonalEdgeStyle;rounded=0;orthogonalLoop=1;jettySize=auto;html=1;" edge="1" parent="1" source="x8Xve1GxDHv1DlTKFavy-34" target="x8Xve1GxDHv1DlTKFavy-45">
          <mxGeometry relative="1" as="geometry" />
        </mxCell>
        <mxCell id="x8Xve1GxDHv1DlTKFavy-82" style="edgeStyle=orthogonalEdgeStyle;rounded=0;orthogonalLoop=1;jettySize=auto;html=1;" edge="1" parent="1" source="x8Xve1GxDHv1DlTKFavy-3" target="x8Xve1GxDHv1DlTKFavy-33">
          <mxGeometry relative="1" as="geometry" />
        </mxCell>
        <mxCell id="x8Xve1GxDHv1DlTKFavy-83" style="edgeStyle=orthogonalEdgeStyle;rounded=0;orthogonalLoop=1;jettySize=auto;html=1;" edge="1" parent="1" source="x8Xve1GxDHv1DlTKFavy-8" target="x8Xve1GxDHv1DlTKFavy-22">
          <mxGeometry relative="1" as="geometry" />
        </mxCell>
        <mxCell id="x8Xve1GxDHv1DlTKFavy-86" style="edgeStyle=orthogonalEdgeStyle;rounded=0;orthogonalLoop=1;jettySize=auto;html=1;" edge="1" parent="1" source="x8Xve1GxDHv1DlTKFavy-52" target="x8Xve1GxDHv1DlTKFavy-17">
          <mxGeometry relative="1" as="geometry" />
        </mxCell>
        <mxCell id="x8Xve1GxDHv1DlTKFavy-87" style="edgeStyle=orthogonalEdgeStyle;rounded=0;orthogonalLoop=1;jettySize=auto;html=1;" edge="1" parent="1" source="x8Xve1GxDHv1DlTKFavy-4" target="x8Xve1GxDHv1DlTKFavy-17">
          <mxGeometry relative="1" as="geometry" />
        </mxCell>
        <mxCell id="x8Xve1GxDHv1DlTKFavy-88" style="edgeStyle=orthogonalEdgeStyle;rounded=0;orthogonalLoop=1;jettySize=auto;html=1;" edge="1" parent="1" source="x8Xve1GxDHv1DlTKFavy-39" target="x8Xve1GxDHv1DlTKFavy-22">
          <mxGeometry relative="1" as="geometry" />
        </mxCell>
        <mxCell id="x8Xve1GxDHv1DlTKFavy-91" style="edgeStyle=orthogonalEdgeStyle;rounded=0;orthogonalLoop=1;jettySize=auto;html=1;entryX=0.5;entryY=0;entryDx=0;entryDy=0;" edge="1" parent="1" source="x8Xve1GxDHv1DlTKFavy-71" target="x8Xve1GxDHv1DlTKFavy-22">
          <mxGeometry relative="1" as="geometry" />
        </mxCell>
        <mxCell id="x8Xve1GxDHv1DlTKFavy-92" style="edgeStyle=orthogonalEdgeStyle;rounded=0;orthogonalLoop=1;jettySize=auto;html=1;entryX=1.018;entryY=0.141;entryDx=0;entryDy=0;entryPerimeter=0;" edge="1" parent="1" source="x8Xve1GxDHv1DlTKFavy-65" target="x8Xve1GxDHv1DlTKFavy-24">
          <mxGeometry relative="1" as="geometry">
            <Array as="points">
              <mxPoint x="1400" y="966" />
              <mxPoint x="1240" y="966" />
            </Array>
          </mxGeometry>
        </mxCell>
        <mxCell id="x8Xve1GxDHv1DlTKFavy-94" style="edgeStyle=orthogonalEdgeStyle;rounded=0;orthogonalLoop=1;jettySize=auto;html=1;" edge="1" parent="1" source="x8Xve1GxDHv1DlTKFavy-59" target="x8Xve1GxDHv1DlTKFavy-22">
          <mxGeometry relative="1" as="geometry">
            <Array as="points">
              <mxPoint x="1560" y="930" />
            </Array>
          </mxGeometry>
        </mxCell>
        <mxCell id="x8Xve1GxDHv1DlTKFavy-95" style="edgeStyle=orthogonalEdgeStyle;rounded=0;orthogonalLoop=1;jettySize=auto;html=1;" edge="1" parent="1" source="x8Xve1GxDHv1DlTKFavy-10" target="x8Xve1GxDHv1DlTKFavy-50">
          <mxGeometry relative="1" as="geometry" />
        </mxCell>
      </root>
    </mxGraphModel>
  </diagram>
</mxfile>
